# xmcd
#
# Track frame offsets: 
#        150
#        16370
#        32396
#        44158
#        57311
#        74891
#        87382
#        102137
#        118361
#        129360
#        142010
#        156388
#        172571
#        189324
#        203863
#        223338
#        234851
#        250402
#
# Disc length: 3564 seconds
#
# Revision: 1
# Processed by: cddbd v1.5.2PL0 Copyright (c) Steve Scherf et al.
# Submitted via: ExactAudioCopy v0.99pb5
#
DISCID=0b0dea12
DTITLE=Gunârs Meijers - Brîvs un Laimîgs
DYEAR=2007
DGENRE=Folk/Rock
TTITLE0=Tu vçl esi, es vçl esmu
TTITLE1=Brîvs un laimîgs
TTITLE2=Marija
TTITLE3=Baltais akmens
TTITLE4=Tâ paiet nakts
TTITLE5=Pa jaunam
TTITLE6=Es tev neesmu parâdâ
TTITLE7=Draugiem Draugos
TTITLE8=Es pçc tevis degu
TTITLE9=Ðai burvîgâ naktî
TTITLE10=Pirmâ mîlestîba
TTITLE11=Paòem manu sirdi
TTITLE12=Aizved mani
TTITLE13=Draugiem Draugos
TTITLE14=Krodziòâ
TTITLE15=Par to nekas nebûs
TTITLE16=Everests
TTITLE17=Aizved mani
EXTD=
EXTT0=
EXTT1=
EXTT2=
EXTT3=
EXTT4=
EXTT5=
EXTT6=
EXTT7=
EXTT8=
EXTT9=
EXTT10=
EXTT11=
EXTT12=
EXTT13=
EXTT14=
EXTT15=
EXTT16=
EXTT17=
PLAYORDER=
